<mxfile host="Electron" modified="2024-08-30T10:05:31.183Z" agent="Mozilla/5.0 (Windows NT 10.0; Win64; x64) AppleWebKit/537.36 (KHTML, like Gecko) draw.io/24.4.8 Chrome/124.0.6367.207 Electron/30.0.6 Safari/537.36" etag="dTMaJ4S1zO6xDvAZpdoS" version="24.4.8" type="device">
  <diagram name="第 1 页" id="LN3X0N551eKZmq3MhEVq">
    <mxGraphModel dx="1221" dy="823" grid="1" gridSize="10" guides="1" tooltips="1" connect="1" arrows="1" fold="1" page="1" pageScale="1" pageWidth="827" pageHeight="1169" math="0" shadow="0">
      <root>
        <mxCell id="0" />
        <mxCell id="1" parent="0" />
        <mxCell id="_cvGbf5m3_G5Nq9s7OU7-1" value="" style="rounded=0;whiteSpace=wrap;html=1;" vertex="1" parent="1">
          <mxGeometry x="140" y="90" width="350" height="540" as="geometry" />
        </mxCell>
        <mxCell id="_cvGbf5m3_G5Nq9s7OU7-2" value="&lt;font style=&quot;font-size: 37px;&quot;&gt;+&lt;/font&gt;" style="rounded=0;whiteSpace=wrap;html=1;" vertex="1" parent="1">
          <mxGeometry x="430" y="90" width="60" height="40" as="geometry" />
        </mxCell>
        <mxCell id="_cvGbf5m3_G5Nq9s7OU7-3" value="Name&amp;nbsp;" style="rounded=0;whiteSpace=wrap;html=1;" vertex="1" parent="1">
          <mxGeometry x="140" y="160" width="350" height="50" as="geometry" />
        </mxCell>
        <mxCell id="_cvGbf5m3_G5Nq9s7OU7-4" value="&lt;font style=&quot;font-size: 37px;&quot;&gt;-&lt;/font&gt;" style="rounded=0;whiteSpace=wrap;html=1;" vertex="1" parent="1">
          <mxGeometry x="430" y="160" width="60" height="50" as="geometry" />
        </mxCell>
        <mxCell id="_cvGbf5m3_G5Nq9s7OU7-5" value="剩余文本域的内容&lt;div&gt;每长度为x剩余，输出对应的一个属性的内容&lt;/div&gt;" style="text;html=1;align=center;verticalAlign=middle;resizable=0;points=[];autosize=1;strokeColor=none;fillColor=none;" vertex="1" parent="1">
          <mxGeometry x="520" y="170" width="260" height="40" as="geometry" />
        </mxCell>
        <mxCell id="_cvGbf5m3_G5Nq9s7OU7-6" value="&lt;font style=&quot;font-size: 37px;&quot;&gt;+&lt;/font&gt;" style="rounded=0;whiteSpace=wrap;html=1;" vertex="1" parent="1">
          <mxGeometry x="140" y="590" width="350" height="40" as="geometry" />
        </mxCell>
        <mxCell id="_cvGbf5m3_G5Nq9s7OU7-7" value="-包括：修正和删除，二者" style="text;html=1;align=center;verticalAlign=middle;resizable=0;points=[];autosize=1;strokeColor=none;fillColor=none;" vertex="1" parent="1">
          <mxGeometry x="500" y="248" width="160" height="30" as="geometry" />
        </mxCell>
        <mxCell id="_cvGbf5m3_G5Nq9s7OU7-8" value="history" style="rounded=0;whiteSpace=wrap;html=1;" vertex="1" parent="1">
          <mxGeometry x="370" y="90" width="60" height="40" as="geometry" />
        </mxCell>
        <mxCell id="_cvGbf5m3_G5Nq9s7OU7-9" value="history:&lt;div&gt;点击进入任务坟墓&lt;/div&gt;&lt;div&gt;用状态展示完成过的任务或者删除的任务&lt;/div&gt;" style="text;html=1;align=center;verticalAlign=middle;resizable=0;points=[];autosize=1;strokeColor=none;fillColor=none;" vertex="1" parent="1">
          <mxGeometry x="520" y="80" width="240" height="60" as="geometry" />
        </mxCell>
        <mxCell id="_cvGbf5m3_G5Nq9s7OU7-10" value="" style="rounded=0;whiteSpace=wrap;html=1;" vertex="1" parent="1">
          <mxGeometry x="50" y="710" width="910" height="550" as="geometry" />
        </mxCell>
        <mxCell id="_cvGbf5m3_G5Nq9s7OU7-11" value="收集" style="rounded=0;whiteSpace=wrap;html=1;" vertex="1" parent="1">
          <mxGeometry x="50" y="710" width="910" height="80" as="geometry" />
        </mxCell>
        <mxCell id="_cvGbf5m3_G5Nq9s7OU7-12" value="Name：" style="rounded=0;whiteSpace=wrap;html=1;" vertex="1" parent="1">
          <mxGeometry x="50" y="790" width="370" height="160" as="geometry" />
        </mxCell>
        <mxCell id="_cvGbf5m3_G5Nq9s7OU7-13" value="Constant Time" style="rounded=0;whiteSpace=wrap;html=1;" vertex="1" parent="1">
          <mxGeometry x="50" y="950" width="370" height="180" as="geometry" />
        </mxCell>
        <mxCell id="_cvGbf5m3_G5Nq9s7OU7-14" value="取消" style="rounded=0;whiteSpace=wrap;html=1;" vertex="1" parent="1">
          <mxGeometry x="720" y="1200" width="120" height="60" as="geometry" />
        </mxCell>
        <mxCell id="_cvGbf5m3_G5Nq9s7OU7-15" value="确认" style="rounded=0;whiteSpace=wrap;html=1;" vertex="1" parent="1">
          <mxGeometry x="840" y="1200" width="120" height="60" as="geometry" />
        </mxCell>
        <mxCell id="_cvGbf5m3_G5Nq9s7OU7-16" value="预览" style="rounded=0;whiteSpace=wrap;html=1;" vertex="1" parent="1">
          <mxGeometry x="600" y="1200" width="120" height="60" as="geometry" />
        </mxCell>
        <mxCell id="_cvGbf5m3_G5Nq9s7OU7-17" value="" style="rounded=0;whiteSpace=wrap;html=1;" vertex="1" parent="1">
          <mxGeometry x="250" y="1320" width="300" height="490" as="geometry" />
        </mxCell>
        <mxCell id="_cvGbf5m3_G5Nq9s7OU7-18" value="任务词条" style="rounded=0;whiteSpace=wrap;html=1;" vertex="1" parent="1">
          <mxGeometry x="250" y="1320" width="300" height="70" as="geometry" />
        </mxCell>
        <mxCell id="_cvGbf5m3_G5Nq9s7OU7-19" value="" style="rounded=0;whiteSpace=wrap;html=1;" vertex="1" parent="1">
          <mxGeometry x="330" y="1630" width="120" height="60" as="geometry" />
        </mxCell>
        <mxCell id="_cvGbf5m3_G5Nq9s7OU7-20" value="…………" style="rounded=0;whiteSpace=wrap;html=1;" vertex="1" parent="1">
          <mxGeometry x="330" y="1570" width="120" height="60" as="geometry" />
        </mxCell>
        <mxCell id="_cvGbf5m3_G5Nq9s7OU7-21" value="属性C" style="rounded=0;whiteSpace=wrap;html=1;" vertex="1" parent="1">
          <mxGeometry x="330" y="1510" width="120" height="60" as="geometry" />
        </mxCell>
        <mxCell id="_cvGbf5m3_G5Nq9s7OU7-22" value="属性B" style="rounded=0;whiteSpace=wrap;html=1;" vertex="1" parent="1">
          <mxGeometry x="330" y="1450" width="120" height="60" as="geometry" />
        </mxCell>
        <mxCell id="_cvGbf5m3_G5Nq9s7OU7-23" value="属性A" style="rounded=0;whiteSpace=wrap;html=1;" vertex="1" parent="1">
          <mxGeometry x="330" y="1390" width="120" height="60" as="geometry" />
        </mxCell>
        <mxCell id="_cvGbf5m3_G5Nq9s7OU7-24" value="&lt;font style=&quot;font-size: 37px;&quot;&gt;×&lt;/font&gt;" style="rounded=0;whiteSpace=wrap;html=1;" vertex="1" parent="1">
          <mxGeometry x="490" y="1320" width="60" height="70" as="geometry" />
        </mxCell>
      </root>
    </mxGraphModel>
  </diagram>
</mxfile>
